<?xml version="1.0" standalone="no"?>
<!DOCTYPE svg PUBLIC "-//W3C//DTD SVG 20010904//EN"
 "http://www.w3.org/TR/2001/REC-SVG-20010904/DTD/svg10.dtd">
<svg version="1.0" xmlns="http://www.w3.org/2000/svg"
 width="100.000000pt" height="100.000000pt" viewBox="0 0 100.000000 100.000000"
 preserveAspectRatio="xMidYMid meet">
<metadata>
Created by potrace 1.14, written by Peter Selinger 2001-2017
</metadata>
<g transform="translate(0.000000,100.000000) scale(0.100000,-0.100000)"
fill="#000000" stroke="none">
<path d="M349 959 c-1 -8 -2 -86 -3 -174 l-1 -160 -140 -63 c-77 -35 -149 -67
-160 -72 -19 -8 -19 -8 5 -18 97 -38 276 -115 283 -121 11 -11 15 -37 23 -163
6 -98 9 -138 13 -171 1 -4 18 12 39 35 20 22 48 53 62 67 14 15 48 52 77 83
39 44 56 56 74 53 12 -3 77 -18 144 -35 137 -34 163 -37 147 -18 -5 7 -44 75
-86 150 l-75 138 35 57 c19 32 62 99 94 148 32 50 59 93 59 97 1 4 -14 2 -31
-3 -56 -17 -232 -69 -248 -73 -8 -2 -27 -7 -41 -11 -20 -5 -30 -2 -40 13 -8
10 -53 61 -101 113 -47 52 -96 105 -107 118 -14 16 -21 19 -22 10z"/>
</g>
</svg>
